/vscmnt/brussel_pixiu_data/_data_brussel/112/vsc11236/PredSimResults/SUBJ04mtu3D/worker5.mot
version=1
nRows=9
nColumns=50
inDegrees=yes
endheader
                time	         pelvis_tilt	         pelvis_list	     pelvis_rotation	           pelvis_tx	           pelvis_ty	           pelvis_tz	       hip_flexion_r	     hip_adduction_r	      hip_rotation_r	        knee_angle_r	       ankle_angle_r	         mtp_angle_r	       hip_flexion_l	     hip_adduction_l	      hip_rotation_l	        knee_angle_l	       ankle_angle_l	         mtp_angle_l	    lumbar_extension	      lumbar_bending	     lumbar_rotation	 ercspn_r/activation	 intobl_r/activation	 extobl_r/activation	    abd_r/activation	    add_r/activation	hamstrings_r/activation	bifemsh_r/activation	glut_max_r/activation	iliopsoas_r/activation	rect_fem_r/activation	  vasti_r/activation	gastroc_r/activation	 soleus_r/activation	tib_ant_r/activation	 ercspn_l/activation	 intobl_l/activation	 extobl_l/activation	    abd_l/activation	    add_l/activation	hamstrings_l/activation	bifemsh_l/activation	glut_max_l/activation	iliopsoas_l/activation	rect_fem_l/activation	  vasti_l/activation	gastroc_l/activation	 soleus_l/activation	tib_ant_l/activation	
          1.97903418	         -2.74498839	         -1.02831126	         -7.40514180	          1.86029213	          0.88093698	          0.01117892	        -12.24711105	          0.16457019	         -7.67645665	         -8.33047046	         11.66022196	         22.88198573	         29.51278557	         -3.69249322	         -7.51555475	        -10.66905279	          5.34290551	          0.23177774	        -13.79131218	          3.79400483	          6.60181413	          0.03283273	          0.01000003	          0.01000007	          0.04846569	          0.01000094	          0.02343092	          0.16093385	          0.01488132	          0.01000056	          0.01000020	          0.01000013	          0.31749569	          0.22972274	          0.01000001	          0.03279191	          0.22295565	          0.01813101	          0.01727801	          0.26140960	          0.06863252	          0.06352971	          0.03433726	          0.13248661	          0.01988334	          0.01197962	          0.01710997	          0.01815413	          0.30667209	
          1.99222774	         -2.81423389	         -1.02330694	         -7.17372417	          1.87617439	          0.87880622	          0.01059577	        -12.93375877	          0.04191757	         -8.31289188	         -8.93280967	         11.29271747	         24.30091868	         29.36888596	         -3.56496544	         -7.60666325	        -12.09166510	          5.06219228	          0.22412733	        -13.29976666	          3.19951703	          6.70375307	          0.04092037	          0.01000002	          0.01000011	          0.03972947	          0.01000055	          0.01920790	          0.13192476	          0.01219890	          0.01101925	          0.01000033	          0.01000013	          0.29421811	          0.22081831	          0.01000002	          0.02688106	          0.21714185	          0.01486280	          0.03326134	          0.22144733	          0.06610397	          0.05207837	          0.06650637	          0.10860514	          0.01629928	          0.01000015	          0.01402585	          0.01488177	          0.33648734	
          2.00542130	         -2.87002778	         -0.97019693	         -6.89234969	          1.89229875	          0.87695789	          0.00991944	        -13.50385589	         -0.14572538	         -8.98313554	         -9.79122628	         10.82290668	         25.75568731	         29.18977987	         -3.41098517	         -7.74647504	        -13.41576208	          4.58217299	          0.21368244	        -12.79139971	          2.53175617	          6.77975827	          0.05367165	          0.01000001	          0.01000004	          0.03256801	          0.01000023	          0.01574612	          0.10814465	          0.01000004	          0.01489514	          0.01000047	          0.01000007	          0.24785101	          0.20635635	          0.01000002	          0.03113939	          0.17800081	          0.01218371	          0.05614104	          0.21987764	          0.06813147	          0.04269117	          0.05755861	          0.08902845	          0.01336126	          0.06678303	          0.01149765	          0.01219927	          0.36473978	
          2.01861486	         -2.91302052	         -0.87772112	         -6.56510787	          1.90854594	          0.87556852	          0.00913611	        -13.89849717	         -0.40035574	         -9.68587761	        -10.99104483	         10.21572670	         27.23035995	         28.95266636	         -3.22317113	         -7.96849561	        -14.64668637	          4.11785462	          0.19139294	        -12.28353345	          1.80676987	          6.82729458	          0.06422051	          0.01000001	          0.01000005	          0.02669745	          0.01000026	          0.01290957	          0.08865101	          0.01000004	          0.01221034	          0.01000026	          0.01000006	          0.20317445	          0.18789959	          0.01000001	          0.02748247	          0.14591515	          0.01000003	          0.07686050	          0.21002603	          0.06905822	          0.03499615	          0.04719237	          0.07298056	          0.01095286	          0.12299635	          0.01000019	          0.01000036	          0.39024598	
          2.03180842	         -2.94385457	         -0.74377559	         -6.20433587	          1.92482668	          0.87476527	          0.00824898	        -14.07025399	         -0.73779504	        -10.41507095	        -12.59769053	          9.44334364	         28.69616111	         28.59722215	         -2.98793863	         -8.24637292	        -15.72053110	          3.84191035	          0.17001066	        -11.78687085	          1.02837748	          6.84621437	          0.08151856	          0.01000002	          0.01000004	          0.02188508	          0.01000045	          0.02976071	          0.07267119	          0.01000016	          0.01000944	          0.01000016	          0.01000617	          0.16655109	          0.15402972	          0.01000001	          0.02253021	          0.11961311	          0.01000008	          0.10676584	          0.19232543	          0.07195992	          0.02868840	          0.03956314	          0.05982540	          0.01000010	          0.16391419	          0.01000035	          0.01000017	          0.39702890	
          2.04500198	         -2.96409583	         -0.56834771	         -5.82399825	          1.94098642	          0.87466250	          0.00726978	        -13.96354864	         -1.17463319	        -11.16094399	        -14.68078692	          8.48295516	         30.09547670	         28.12011405	         -2.69125545	         -8.50796893	        -16.61337908	          3.75090663	          0.15200474	        -11.31846635	          0.20119547	          6.84022308	          0.10148509	          0.01000005	          0.01000005	          0.01794018	          0.01000116	          0.06918305	          0.05957183	          0.01244185	          0.01000018	          0.01000008	          0.01511876	          0.13652930	          0.12626498	          0.01000001	          0.01846941	          0.09805216	          0.01000011	          0.12952453	          0.17927837	          0.07256123	          0.02351759	          0.03455089	          0.04904153	          0.01000011	          0.19235148	          0.01000078	          0.01000066	          0.39036938	
          2.05819555	         -2.97471859	         -0.36269801	         -5.43486650	          1.95690441	          0.87530296	          0.00621649	        -13.55453388	         -1.71191440	        -11.91441023	        -17.25246951	          7.29798475	         31.35277971	         27.52865507	         -2.33501625	         -8.69676408	        -17.31823459	          3.81334562	          0.13947588	        -10.89172560	         -0.65793175	          6.81207957	          0.09745056	          0.01391416	          0.01000005	          0.01470636	          0.05875983	          0.08858358	          0.04883372	          0.01219905	          0.01000016	          0.01000006	          0.01239357	          0.11191911	          0.10350500	          0.01000000	          0.01514088	          0.08037770	          0.01000023	          0.13842692	          0.18471395	          0.07561102	          0.01927903	          0.02832309	          0.04020152	          0.01000008	          0.20396249	          0.01000063	          0.01000041	          0.37600244	
          2.07138911	         -2.97610410	         -0.15243427	         -5.04485724	          1.97249973	          0.87662842	          0.00510570	        -12.81910133	         -2.33829000	        -12.66616593	        -20.33664396	          5.87866393	         32.35269398	         26.82522982	         -1.94635060	         -8.80820388	        -17.82737835	          3.99585928	          0.13699449	        -10.51750082	         -1.51611383	          6.76005920	          0.09929839	          0.03588596	          0.01000005	          0.01205546	          0.04817136	          0.08896812	          0.04003127	          0.01000017	          0.01000019	          0.01000004	          0.01015957	          0.09174504	          0.08484763	          0.01000061	          0.01518691	          0.06588916	          0.01000024	          0.14218328	          0.17790344	          0.07996956	          0.01580439	          0.02321796	          0.03295497	          0.01000007	          0.21139942	          0.01000030	          0.01000017	          0.35139075	
          2.08458267	         -2.96791389	          0.03118322	         -4.66120050	          1.98771732	          0.87852988	          0.00394228	        -11.73985780	         -3.04057397	        -13.40987385	        -23.97007578	          4.37893887	         32.67931133	         26.00651133	         -1.56043876	         -8.85051907	        -18.12706297	          4.26991473	          0.15685842	        -10.20414281	         -2.33100785	          6.67887788	          0.09199537	          0.03857555	          0.01000007	          0.01000001	          0.11223953	          0.07293610	          0.03281565	          0.01000006	          0.01000018	          0.01000003	          0.01000002	          0.07520747	          0.06955336	          0.03752357	          0.01244955	          0.05401226	          0.01000024	          0.14449121	          0.17676744	          0.08311936	          0.01295591	          0.02691172	          0.02701465	          0.01000007	          0.21031608	          0.01000068	          0.01000062	          0.32462329	
